<?xml version="1.0" encoding="UTF-8" standalone="no"?>
<!DOCTYPE svg PUBLIC "-//W3C//DTD SVG 1.1//EN"
 "http://www.w3.org/Graphics/SVG/1.1/DTD/svg11.dtd">
<!-- Generated by graphviz version 9.0.0 (20231125.0833)
 -->
<!-- Title: Tree Pages: 1 -->
<svg width="644pt" height="606pt"
 viewBox="0.00 0.00 644.00 606.00" xmlns="http://www.w3.org/2000/svg" xmlns:xlink="http://www.w3.org/1999/xlink">
<g id="graph0" class="graph" transform="scale(1 1) rotate(0) translate(4 602)">
<title>Tree</title>
<polygon fill="white" stroke="none" points="-4,4 -4,-602 640,-602 640,4 -4,4"/>
<!-- 0 -->
<g id="node1" class="node">
<title>0</title>
<path fill="#ffffff" stroke="black" d="M302,-598C302,-598 169,-598 169,-598 163,-598 157,-592 157,-586 157,-586 157,-515.75 157,-515.75 157,-509.75 163,-503.75 169,-503.75 169,-503.75 302,-503.75 302,-503.75 308,-503.75 314,-509.75 314,-515.75 314,-515.75 314,-586 314,-586 314,-592 308,-598 302,-598"/>
<text text-anchor="start" x="166.5" y="-580.7" font-family="Helvetica,sans-Serif" font-size="14.00">petal_length ≤ 2.35</text>
<text text-anchor="start" x="192" y="-563.45" font-family="Helvetica,sans-Serif" font-size="14.00">gini = 0.665</text>
<text text-anchor="start" x="182.62" y="-546.2" font-family="Helvetica,sans-Serif" font-size="14.00">samples = 112</text>
<text text-anchor="start" x="165" y="-528.95" font-family="Helvetica,sans-Serif" font-size="14.00">value = [34, 39, 39]</text>
<text text-anchor="start" x="174" y="-511.7" font-family="Helvetica,sans-Serif" font-size="14.00">class = versicolor</text>
</g>
<!-- 1 -->
<g id="node2" class="node">
<title>1</title>
<path fill="#e58139" stroke="black" d="M212,-459.12C212,-459.12 97,-459.12 97,-459.12 91,-459.12 85,-453.12 85,-447.12 85,-447.12 85,-394.12 85,-394.12 85,-388.12 91,-382.12 97,-382.12 97,-382.12 212,-382.12 212,-382.12 218,-382.12 224,-388.12 224,-394.12 224,-394.12 224,-447.12 224,-447.12 224,-453.12 218,-459.12 212,-459.12"/>
<text text-anchor="start" x="120" y="-441.82" font-family="Helvetica,sans-Serif" font-size="14.00">gini = 0.0</text>
<text text-anchor="start" x="106.12" y="-424.57" font-family="Helvetica,sans-Serif" font-size="14.00">samples = 34</text>
<text text-anchor="start" x="93" y="-407.32" font-family="Helvetica,sans-Serif" font-size="14.00">value = [34, 0, 0]</text>
<text text-anchor="start" x="104.25" y="-390.07" font-family="Helvetica,sans-Serif" font-size="14.00">class = setosa</text>
</g>
<!-- 0&#45;&gt;1 -->
<g id="edge1" class="edge">
<title>0&#45;&gt;1</title>
<path fill="none" stroke="black" d="M206.26,-503.57C199.18,-492.36 191.6,-480.37 184.49,-469.1"/>
<polygon fill="black" stroke="black" points="187.49,-467.3 179.19,-460.71 181.57,-471.04 187.49,-467.3"/>
<text text-anchor="middle" x="172.87" y="-479.14" font-family="Helvetica,sans-Serif" font-size="14.00">True</text>
</g>
<!-- 2 -->
<g id="node3" class="node">
<title>2</title>
<path fill="#ffffff" stroke="black" d="M378.5,-467.75C378.5,-467.75 254.5,-467.75 254.5,-467.75 248.5,-467.75 242.5,-461.75 242.5,-455.75 242.5,-455.75 242.5,-385.5 242.5,-385.5 242.5,-379.5 248.5,-373.5 254.5,-373.5 254.5,-373.5 378.5,-373.5 378.5,-373.5 384.5,-373.5 390.5,-379.5 390.5,-385.5 390.5,-385.5 390.5,-455.75 390.5,-455.75 390.5,-461.75 384.5,-467.75 378.5,-467.75"/>
<text text-anchor="start" x="250.5" y="-450.45" font-family="Helvetica,sans-Serif" font-size="14.00">petal_width ≤ 1.65</text>
<text text-anchor="start" x="282" y="-433.2" font-family="Helvetica,sans-Serif" font-size="14.00">gini = 0.5</text>
<text text-anchor="start" x="268.12" y="-415.95" font-family="Helvetica,sans-Serif" font-size="14.00">samples = 78</text>
<text text-anchor="start" x="250.5" y="-398.7" font-family="Helvetica,sans-Serif" font-size="14.00">value = [0, 39, 39]</text>
<text text-anchor="start" x="255" y="-381.45" font-family="Helvetica,sans-Serif" font-size="14.00">class = versicolor</text>
</g>
<!-- 0&#45;&gt;2 -->
<g id="edge2" class="edge">
<title>0&#45;&gt;2</title>
<path fill="none" stroke="black" d="M264.74,-503.57C270.08,-495.13 275.69,-486.24 281.18,-477.55"/>
<polygon fill="black" stroke="black" points="284.11,-479.46 286.49,-469.14 278.19,-475.72 284.11,-479.46"/>
<text text-anchor="middle" x="292.81" y="-487.57" font-family="Helvetica,sans-Serif" font-size="14.00">False</text>
</g>
<!-- 3 -->
<g id="node4" class="node">
<title>3</title>
<path fill="#49e78b" stroke="black" d="M295.5,-337.5C295.5,-337.5 165.5,-337.5 165.5,-337.5 159.5,-337.5 153.5,-331.5 153.5,-325.5 153.5,-325.5 153.5,-255.25 153.5,-255.25 153.5,-249.25 159.5,-243.25 165.5,-243.25 165.5,-243.25 295.5,-243.25 295.5,-243.25 301.5,-243.25 307.5,-249.25 307.5,-255.25 307.5,-255.25 307.5,-325.5 307.5,-325.5 307.5,-331.5 301.5,-337.5 295.5,-337.5"/>
<text text-anchor="start" x="161.5" y="-320.2" font-family="Helvetica,sans-Serif" font-size="14.00">petal_length ≤ 4.95</text>
<text text-anchor="start" x="187" y="-302.95" font-family="Helvetica,sans-Serif" font-size="14.00">gini = 0.136</text>
<text text-anchor="start" x="182.12" y="-285.7" font-family="Helvetica,sans-Serif" font-size="14.00">samples = 41</text>
<text text-anchor="start" x="169" y="-268.45" font-family="Helvetica,sans-Serif" font-size="14.00">value = [0, 38, 3]</text>
<text text-anchor="start" x="169" y="-251.2" font-family="Helvetica,sans-Serif" font-size="14.00">class = versicolor</text>
</g>
<!-- 2&#45;&gt;3 -->
<g id="edge3" class="edge">
<title>2&#45;&gt;3</title>
<path fill="none" stroke="black" d="M285.45,-373.32C279.73,-364.79 273.7,-355.79 267.81,-347.02"/>
<polygon fill="black" stroke="black" points="270.82,-345.22 262.35,-338.87 265.01,-349.12 270.82,-345.22"/>
</g>
<!-- 8 -->
<g id="node9" class="node">
<title>8</title>
<path fill="#843ee6" stroke="black" d="M467.5,-337.5C467.5,-337.5 337.5,-337.5 337.5,-337.5 331.5,-337.5 325.5,-331.5 325.5,-325.5 325.5,-325.5 325.5,-255.25 325.5,-255.25 325.5,-249.25 331.5,-243.25 337.5,-243.25 337.5,-243.25 467.5,-243.25 467.5,-243.25 473.5,-243.25 479.5,-249.25 479.5,-255.25 479.5,-255.25 479.5,-325.5 479.5,-325.5 479.5,-331.5 473.5,-337.5 467.5,-337.5"/>
<text text-anchor="start" x="333.5" y="-320.2" font-family="Helvetica,sans-Serif" font-size="14.00">petal_length ≤ 4.85</text>
<text text-anchor="start" x="359" y="-302.95" font-family="Helvetica,sans-Serif" font-size="14.00">gini = 0.053</text>
<text text-anchor="start" x="354.12" y="-285.7" font-family="Helvetica,sans-Serif" font-size="14.00">samples = 37</text>
<text text-anchor="start" x="341" y="-268.45" font-family="Helvetica,sans-Serif" font-size="14.00">value = [0, 1, 36]</text>
<text text-anchor="start" x="345.5" y="-251.2" font-family="Helvetica,sans-Serif" font-size="14.00">class = virginica</text>
</g>
<!-- 2&#45;&gt;8 -->
<g id="edge8" class="edge">
<title>2&#45;&gt;8</title>
<path fill="none" stroke="black" d="M347.55,-373.32C353.27,-364.79 359.3,-355.79 365.19,-347.02"/>
<polygon fill="black" stroke="black" points="367.99,-349.12 370.65,-338.87 362.18,-345.22 367.99,-349.12"/>
</g>
<!-- 4 -->
<g id="node5" class="node">
<title>4</title>
<path fill="#39e581" stroke="black" d="M127,-198.62C127,-198.62 12,-198.62 12,-198.62 6,-198.62 0,-192.62 0,-186.62 0,-186.62 0,-133.62 0,-133.62 0,-127.62 6,-121.62 12,-121.62 12,-121.62 127,-121.62 127,-121.62 133,-121.62 139,-127.62 139,-133.62 139,-133.62 139,-186.62 139,-186.62 139,-192.62 133,-198.62 127,-198.62"/>
<text text-anchor="start" x="35" y="-181.32" font-family="Helvetica,sans-Serif" font-size="14.00">gini = 0.0</text>
<text text-anchor="start" x="21.12" y="-164.07" font-family="Helvetica,sans-Serif" font-size="14.00">samples = 37</text>
<text text-anchor="start" x="8" y="-146.82" font-family="Helvetica,sans-Serif" font-size="14.00">value = [0, 37, 0]</text>
<text text-anchor="start" x="8" y="-129.57" font-family="Helvetica,sans-Serif" font-size="14.00">class = versicolor</text>
</g>
<!-- 3&#45;&gt;4 -->
<g id="edge4" class="edge">
<title>3&#45;&gt;4</title>
<path fill="none" stroke="black" d="M172.38,-243.07C157.17,-230.96 140.8,-217.92 125.69,-205.89"/>
<polygon fill="black" stroke="black" points="128.15,-203.37 118.15,-199.88 123.79,-208.84 128.15,-203.37"/>
</g>
<!-- 5 -->
<g id="node6" class="node">
<title>5</title>
<path fill="#ab7bee" stroke="black" d="M293.5,-207.25C293.5,-207.25 169.5,-207.25 169.5,-207.25 163.5,-207.25 157.5,-201.25 157.5,-195.25 157.5,-195.25 157.5,-125 157.5,-125 157.5,-119 163.5,-113 169.5,-113 169.5,-113 293.5,-113 293.5,-113 299.5,-113 305.5,-119 305.5,-125 305.5,-125 305.5,-195.25 305.5,-195.25 305.5,-201.25 299.5,-207.25 293.5,-207.25"/>
<text text-anchor="start" x="165.5" y="-189.95" font-family="Helvetica,sans-Serif" font-size="14.00">petal_width ≤ 1.55</text>
<text text-anchor="start" x="188" y="-172.7" font-family="Helvetica,sans-Serif" font-size="14.00">gini = 0.375</text>
<text text-anchor="start" x="187.62" y="-155.45" font-family="Helvetica,sans-Serif" font-size="14.00">samples = 4</text>
<text text-anchor="start" x="174.5" y="-138.2" font-family="Helvetica,sans-Serif" font-size="14.00">value = [0, 1, 3]</text>
<text text-anchor="start" x="174.5" y="-120.95" font-family="Helvetica,sans-Serif" font-size="14.00">class = virginica</text>
</g>
<!-- 3&#45;&gt;5 -->
<g id="edge5" class="edge">
<title>3&#45;&gt;5</title>
<path fill="none" stroke="black" d="M230.86,-243.07C230.92,-235.17 230.99,-226.88 231.05,-218.73"/>
<polygon fill="black" stroke="black" points="234.55,-218.9 231.13,-208.87 227.55,-218.84 234.55,-218.9"/>
</g>
<!-- 6 -->
<g id="node7" class="node">
<title>6</title>
<path fill="#8139e5" stroke="black" d="M135.5,-77C135.5,-77 29.5,-77 29.5,-77 23.5,-77 17.5,-71 17.5,-65 17.5,-65 17.5,-12 17.5,-12 17.5,-6 23.5,0 29.5,0 29.5,0 135.5,0 135.5,0 141.5,0 147.5,-6 147.5,-12 147.5,-12 147.5,-65 147.5,-65 147.5,-71 141.5,-77 135.5,-77"/>
<text text-anchor="start" x="48" y="-59.7" font-family="Helvetica,sans-Serif" font-size="14.00">gini = 0.0</text>
<text text-anchor="start" x="38.62" y="-42.45" font-family="Helvetica,sans-Serif" font-size="14.00">samples = 3</text>
<text text-anchor="start" x="25.5" y="-25.2" font-family="Helvetica,sans-Serif" font-size="14.00">value = [0, 0, 3]</text>
<text text-anchor="start" x="25.5" y="-7.95" font-family="Helvetica,sans-Serif" font-size="14.00">class = virginica</text>
</g>
<!-- 5&#45;&gt;6 -->
<g id="edge6" class="edge">
<title>5&#45;&gt;6</title>
<path fill="none" stroke="black" d="M173.47,-112.53C161.88,-103.23 149.73,-93.47 138.22,-84.23"/>
<polygon fill="black" stroke="black" points="140.73,-81.76 130.74,-78.23 136.35,-87.22 140.73,-81.76"/>
</g>
<!-- 7 -->
<g id="node8" class="node">
<title>7</title>
<path fill="#39e581" stroke="black" d="M293,-77C293,-77 178,-77 178,-77 172,-77 166,-71 166,-65 166,-65 166,-12 166,-12 166,-6 172,0 178,0 178,0 293,0 293,0 299,0 305,-6 305,-12 305,-12 305,-65 305,-65 305,-71 299,-77 293,-77"/>
<text text-anchor="start" x="201" y="-59.7" font-family="Helvetica,sans-Serif" font-size="14.00">gini = 0.0</text>
<text text-anchor="start" x="191.62" y="-42.45" font-family="Helvetica,sans-Serif" font-size="14.00">samples = 1</text>
<text text-anchor="start" x="178.5" y="-25.2" font-family="Helvetica,sans-Serif" font-size="14.00">value = [0, 1, 0]</text>
<text text-anchor="start" x="174" y="-7.95" font-family="Helvetica,sans-Serif" font-size="14.00">class = versicolor</text>
</g>
<!-- 5&#45;&gt;7 -->
<g id="edge7" class="edge">
<title>5&#45;&gt;7</title>
<path fill="none" stroke="black" d="M233.06,-112.53C233.32,-104.69 233.59,-96.52 233.86,-88.61"/>
<polygon fill="black" stroke="black" points="237.35,-88.9 234.19,-78.79 230.35,-88.67 237.35,-88.9"/>
</g>
<!-- 9 -->
<g id="node10" class="node">
<title>9</title>
<path fill="#c09cf2" stroke="black" d="M466.5,-207.25C466.5,-207.25 336.5,-207.25 336.5,-207.25 330.5,-207.25 324.5,-201.25 324.5,-195.25 324.5,-195.25 324.5,-125 324.5,-125 324.5,-119 330.5,-113 336.5,-113 336.5,-113 466.5,-113 466.5,-113 472.5,-113 478.5,-119 478.5,-125 478.5,-125 478.5,-195.25 478.5,-195.25 478.5,-201.25 472.5,-207.25 466.5,-207.25"/>
<text text-anchor="start" x="332.5" y="-189.95" font-family="Helvetica,sans-Serif" font-size="14.00">petal_length ≤ 4.65</text>
<text text-anchor="start" x="358" y="-172.7" font-family="Helvetica,sans-Serif" font-size="14.00">gini = 0.444</text>
<text text-anchor="start" x="357.62" y="-155.45" font-family="Helvetica,sans-Serif" font-size="14.00">samples = 3</text>
<text text-anchor="start" x="344.5" y="-138.2" font-family="Helvetica,sans-Serif" font-size="14.00">value = [0, 1, 2]</text>
<text text-anchor="start" x="344.5" y="-120.95" font-family="Helvetica,sans-Serif" font-size="14.00">class = virginica</text>
</g>
<!-- 8&#45;&gt;9 -->
<g id="edge9" class="edge">
<title>8&#45;&gt;9</title>
<path fill="none" stroke="black" d="M402.14,-243.07C402.08,-235.17 402.01,-226.88 401.95,-218.73"/>
<polygon fill="black" stroke="black" points="405.45,-218.84 401.87,-208.87 398.45,-218.9 405.45,-218.84"/>
</g>
<!-- 12 -->
<g id="node13" class="node">
<title>12</title>
<path fill="#8139e5" stroke="black" d="M624,-198.62C624,-198.62 509,-198.62 509,-198.62 503,-198.62 497,-192.62 497,-186.62 497,-186.62 497,-133.62 497,-133.62 497,-127.62 503,-121.62 509,-121.62 509,-121.62 624,-121.62 624,-121.62 630,-121.62 636,-127.62 636,-133.62 636,-133.62 636,-186.62 636,-186.62 636,-192.62 630,-198.62 624,-198.62"/>
<text text-anchor="start" x="532" y="-181.32" font-family="Helvetica,sans-Serif" font-size="14.00">gini = 0.0</text>
<text text-anchor="start" x="518.12" y="-164.07" font-family="Helvetica,sans-Serif" font-size="14.00">samples = 34</text>
<text text-anchor="start" x="505" y="-146.82" font-family="Helvetica,sans-Serif" font-size="14.00">value = [0, 0, 34]</text>
<text text-anchor="start" x="509.5" y="-129.57" font-family="Helvetica,sans-Serif" font-size="14.00">class = virginica</text>
</g>
<!-- 8&#45;&gt;12 -->
<g id="edge12" class="edge">
<title>8&#45;&gt;12</title>
<path fill="none" stroke="black" d="M461.71,-243.07C477.2,-230.96 493.87,-217.92 509.26,-205.89"/>
<polygon fill="black" stroke="black" points="511.24,-208.78 516.96,-199.86 506.93,-203.27 511.24,-208.78"/>
</g>
<!-- 10 -->
<g id="node11" class="node">
<title>10</title>
<path fill="#8139e5" stroke="black" d="M450.5,-77C450.5,-77 344.5,-77 344.5,-77 338.5,-77 332.5,-71 332.5,-65 332.5,-65 332.5,-12 332.5,-12 332.5,-6 338.5,0 344.5,0 344.5,0 450.5,0 450.5,0 456.5,0 462.5,-6 462.5,-12 462.5,-12 462.5,-65 462.5,-65 462.5,-71 456.5,-77 450.5,-77"/>
<text text-anchor="start" x="363" y="-59.7" font-family="Helvetica,sans-Serif" font-size="14.00">gini = 0.0</text>
<text text-anchor="start" x="353.62" y="-42.45" font-family="Helvetica,sans-Serif" font-size="14.00">samples = 1</text>
<text text-anchor="start" x="340.5" y="-25.2" font-family="Helvetica,sans-Serif" font-size="14.00">value = [0, 0, 1]</text>
<text text-anchor="start" x="340.5" y="-7.95" font-family="Helvetica,sans-Serif" font-size="14.00">class = virginica</text>
</g>
<!-- 9&#45;&gt;10 -->
<g id="edge10" class="edge">
<title>9&#45;&gt;10</title>
<path fill="none" stroke="black" d="M399.94,-112.53C399.68,-104.69 399.41,-96.52 399.14,-88.61"/>
<polygon fill="black" stroke="black" points="402.65,-88.67 398.81,-78.79 395.65,-88.9 402.65,-88.67"/>
</g>
<!-- 11 -->
<g id="node12" class="node">
<title>11</title>
<path fill="#ffffff" stroke="black" d="M608,-77C608,-77 493,-77 493,-77 487,-77 481,-71 481,-65 481,-65 481,-12 481,-12 481,-6 487,0 493,0 493,0 608,0 608,0 614,0 620,-6 620,-12 620,-12 620,-65 620,-65 620,-71 614,-77 608,-77"/>
<text text-anchor="start" x="516" y="-59.7" font-family="Helvetica,sans-Serif" font-size="14.00">gini = 0.5</text>
<text text-anchor="start" x="506.62" y="-42.45" font-family="Helvetica,sans-Serif" font-size="14.00">samples = 2</text>
<text text-anchor="start" x="493.5" y="-25.2" font-family="Helvetica,sans-Serif" font-size="14.00">value = [0, 1, 1]</text>
<text text-anchor="start" x="489" y="-7.95" font-family="Helvetica,sans-Serif" font-size="14.00">class = versicolor</text>
</g>
<!-- 9&#45;&gt;11 -->
<g id="edge11" class="edge">
<title>9&#45;&gt;11</title>
<path fill="none" stroke="black" d="M459.53,-112.53C471.12,-103.23 483.27,-93.47 494.78,-84.23"/>
<polygon fill="black" stroke="black" points="496.65,-87.22 502.26,-78.23 492.27,-81.76 496.65,-87.22"/>
</g>
</g>
</svg>