<?xml version="1.0" encoding="UTF-8" standalone="no"?>
<!DOCTYPE svg PUBLIC "-//W3C//DTD SVG 1.1//EN"
 "http://www.w3.org/Graphics/SVG/1.1/DTD/svg11.dtd">
<!-- Generated by graphviz version 2.43.0 (0)
 -->
<!-- Title: Tree Pages: 1 -->
<svg width="559pt" height="552pt"
 viewBox="0.00 0.00 559.00 552.00" xmlns="http://www.w3.org/2000/svg" xmlns:xlink="http://www.w3.org/1999/xlink">
<g id="graph0" class="graph" transform="scale(1 1) rotate(0) translate(4 548)">
<title>Tree</title>
<polygon fill="white" stroke="transparent" points="-4,4 -4,-548 555,-548 555,4 -4,4"/>
<!-- 0 -->
<g id="node1" class="node">
<title>0</title>
<path fill="#ffffff" stroke="black" d="M259.5,-544C259.5,-544 151.5,-544 151.5,-544 145.5,-544 139.5,-538 139.5,-532 139.5,-532 139.5,-473 139.5,-473 139.5,-467 145.5,-461 151.5,-461 151.5,-461 259.5,-461 259.5,-461 265.5,-461 271.5,-467 271.5,-473 271.5,-473 271.5,-532 271.5,-532 271.5,-538 265.5,-544 259.5,-544"/>
<text text-anchor="start" x="148" y="-528.8" font-family="Helvetica,sans-Serif" font-size="14.00">petal_length ≤ 2.35</text>
<text text-anchor="start" x="170" y="-513.8" font-family="Helvetica,sans-Serif" font-size="14.00">gini = 0.665</text>
<text text-anchor="start" x="161" y="-498.8" font-family="Helvetica,sans-Serif" font-size="14.00">samples = 112</text>
<text text-anchor="start" x="147.5" y="-483.8" font-family="Helvetica,sans-Serif" font-size="14.00">value = [34, 39, 39]</text>
<text text-anchor="start" x="153" y="-468.8" font-family="Helvetica,sans-Serif" font-size="14.00">class = versicolor</text>
</g>
<!-- 1 -->
<g id="node2" class="node">
<title>1</title>
<path fill="#e58139" stroke="black" d="M182,-417.5C182,-417.5 89,-417.5 89,-417.5 83,-417.5 77,-411.5 77,-405.5 77,-405.5 77,-361.5 77,-361.5 77,-355.5 83,-349.5 89,-349.5 89,-349.5 182,-349.5 182,-349.5 188,-349.5 194,-355.5 194,-361.5 194,-361.5 194,-405.5 194,-405.5 194,-411.5 188,-417.5 182,-417.5"/>
<text text-anchor="start" x="107.5" y="-402.3" font-family="Helvetica,sans-Serif" font-size="14.00">gini = 0.0</text>
<text text-anchor="start" x="94.5" y="-387.3" font-family="Helvetica,sans-Serif" font-size="14.00">samples = 34</text>
<text text-anchor="start" x="85" y="-372.3" font-family="Helvetica,sans-Serif" font-size="14.00">value = [34, 0, 0]</text>
<text text-anchor="start" x="92" y="-357.3" font-family="Helvetica,sans-Serif" font-size="14.00">class = setosa</text>
</g>
<!-- 0&#45;&gt;1 -->
<g id="edge1" class="edge">
<title>0&#45;&gt;1</title>
<path fill="none" stroke="black" d="M181.21,-460.91C174.55,-449.76 167.3,-437.66 160.59,-426.44"/>
<polygon fill="black" stroke="black" points="163.48,-424.45 155.34,-417.67 157.47,-428.05 163.48,-424.45"/>
<text text-anchor="middle" x="149.25" y="-438.21" font-family="Helvetica,sans-Serif" font-size="14.00">True</text>
</g>
<!-- 2 -->
<g id="node3" class="node">
<title>2</title>
<path fill="#ffffff" stroke="black" d="M326.5,-425C326.5,-425 224.5,-425 224.5,-425 218.5,-425 212.5,-419 212.5,-413 212.5,-413 212.5,-354 212.5,-354 212.5,-348 218.5,-342 224.5,-342 224.5,-342 326.5,-342 326.5,-342 332.5,-342 338.5,-348 338.5,-354 338.5,-354 338.5,-413 338.5,-413 338.5,-419 332.5,-425 326.5,-425"/>
<text text-anchor="start" x="220.5" y="-409.8" font-family="Helvetica,sans-Serif" font-size="14.00">petal_width ≤ 1.65</text>
<text text-anchor="start" x="247.5" y="-394.8" font-family="Helvetica,sans-Serif" font-size="14.00">gini = 0.5</text>
<text text-anchor="start" x="234.5" y="-379.8" font-family="Helvetica,sans-Serif" font-size="14.00">samples = 78</text>
<text text-anchor="start" x="221" y="-364.8" font-family="Helvetica,sans-Serif" font-size="14.00">value = [0, 39, 39]</text>
<text text-anchor="start" x="223" y="-349.8" font-family="Helvetica,sans-Serif" font-size="14.00">class = versicolor</text>
</g>
<!-- 0&#45;&gt;2 -->
<g id="edge2" class="edge">
<title>0&#45;&gt;2</title>
<path fill="none" stroke="black" d="M229.79,-460.91C235.05,-452.1 240.68,-442.7 246.12,-433.61"/>
<polygon fill="black" stroke="black" points="249.13,-435.4 251.26,-425.02 243.12,-431.81 249.13,-435.4"/>
<text text-anchor="middle" x="257.35" y="-445.57" font-family="Helvetica,sans-Serif" font-size="14.00">False</text>
</g>
<!-- 3 -->
<g id="node4" class="node">
<title>3</title>
<path fill="#49e78b" stroke="black" d="M255,-306C255,-306 148,-306 148,-306 142,-306 136,-300 136,-294 136,-294 136,-235 136,-235 136,-229 142,-223 148,-223 148,-223 255,-223 255,-223 261,-223 267,-229 267,-235 267,-235 267,-294 267,-294 267,-300 261,-306 255,-306"/>
<text text-anchor="start" x="144" y="-290.8" font-family="Helvetica,sans-Serif" font-size="14.00">petal_length ≤ 4.95</text>
<text text-anchor="start" x="166" y="-275.8" font-family="Helvetica,sans-Serif" font-size="14.00">gini = 0.136</text>
<text text-anchor="start" x="160.5" y="-260.8" font-family="Helvetica,sans-Serif" font-size="14.00">samples = 41</text>
<text text-anchor="start" x="151" y="-245.8" font-family="Helvetica,sans-Serif" font-size="14.00">value = [0, 38, 3]</text>
<text text-anchor="start" x="149" y="-230.8" font-family="Helvetica,sans-Serif" font-size="14.00">class = versicolor</text>
</g>
<!-- 2&#45;&gt;3 -->
<g id="edge3" class="edge">
<title>2&#45;&gt;3</title>
<path fill="none" stroke="black" d="M249.83,-341.91C244.26,-333.1 238.31,-323.7 232.56,-314.61"/>
<polygon fill="black" stroke="black" points="235.43,-312.6 227.13,-306.02 229.52,-316.34 235.43,-312.6"/>
</g>
<!-- 8 -->
<g id="node9" class="node">
<title>8</title>
<path fill="#843ee6" stroke="black" d="M404,-306C404,-306 297,-306 297,-306 291,-306 285,-300 285,-294 285,-294 285,-235 285,-235 285,-229 291,-223 297,-223 297,-223 404,-223 404,-223 410,-223 416,-229 416,-235 416,-235 416,-294 416,-294 416,-300 410,-306 404,-306"/>
<text text-anchor="start" x="293" y="-290.8" font-family="Helvetica,sans-Serif" font-size="14.00">petal_length ≤ 4.85</text>
<text text-anchor="start" x="315" y="-275.8" font-family="Helvetica,sans-Serif" font-size="14.00">gini = 0.053</text>
<text text-anchor="start" x="309.5" y="-260.8" font-family="Helvetica,sans-Serif" font-size="14.00">samples = 37</text>
<text text-anchor="start" x="300" y="-245.8" font-family="Helvetica,sans-Serif" font-size="14.00">value = [0, 1, 36]</text>
<text text-anchor="start" x="302" y="-230.8" font-family="Helvetica,sans-Serif" font-size="14.00">class = virginica</text>
</g>
<!-- 2&#45;&gt;8 -->
<g id="edge8" class="edge">
<title>2&#45;&gt;8</title>
<path fill="none" stroke="black" d="M301.52,-341.91C307.16,-333.1 313.19,-323.7 319.02,-314.61"/>
<polygon fill="black" stroke="black" points="322.07,-316.33 324.53,-306.02 316.18,-312.55 322.07,-316.33"/>
</g>
<!-- 4 -->
<g id="node5" class="node">
<title>4</title>
<path fill="#39e581" stroke="black" d="M109,-179.5C109,-179.5 12,-179.5 12,-179.5 6,-179.5 0,-173.5 0,-167.5 0,-167.5 0,-123.5 0,-123.5 0,-117.5 6,-111.5 12,-111.5 12,-111.5 109,-111.5 109,-111.5 115,-111.5 121,-117.5 121,-123.5 121,-123.5 121,-167.5 121,-167.5 121,-173.5 115,-179.5 109,-179.5"/>
<text text-anchor="start" x="32.5" y="-164.3" font-family="Helvetica,sans-Serif" font-size="14.00">gini = 0.0</text>
<text text-anchor="start" x="19.5" y="-149.3" font-family="Helvetica,sans-Serif" font-size="14.00">samples = 37</text>
<text text-anchor="start" x="10" y="-134.3" font-family="Helvetica,sans-Serif" font-size="14.00">value = [0, 37, 0]</text>
<text text-anchor="start" x="8" y="-119.3" font-family="Helvetica,sans-Serif" font-size="14.00">class = versicolor</text>
</g>
<!-- 3&#45;&gt;4 -->
<g id="edge4" class="edge">
<title>3&#45;&gt;4</title>
<path fill="none" stroke="black" d="M152.58,-222.91C138.22,-210.99 122.53,-197.98 108.25,-186.12"/>
<polygon fill="black" stroke="black" points="110.4,-183.36 100.47,-179.67 105.93,-188.75 110.4,-183.36"/>
</g>
<!-- 5 -->
<g id="node6" class="node">
<title>5</title>
<path fill="#ab7bee" stroke="black" d="M253.5,-187C253.5,-187 151.5,-187 151.5,-187 145.5,-187 139.5,-181 139.5,-175 139.5,-175 139.5,-116 139.5,-116 139.5,-110 145.5,-104 151.5,-104 151.5,-104 253.5,-104 253.5,-104 259.5,-104 265.5,-110 265.5,-116 265.5,-116 265.5,-175 265.5,-175 265.5,-181 259.5,-187 253.5,-187"/>
<text text-anchor="start" x="147.5" y="-171.8" font-family="Helvetica,sans-Serif" font-size="14.00">petal_width ≤ 1.55</text>
<text text-anchor="start" x="167" y="-156.8" font-family="Helvetica,sans-Serif" font-size="14.00">gini = 0.375</text>
<text text-anchor="start" x="165" y="-141.8" font-family="Helvetica,sans-Serif" font-size="14.00">samples = 4</text>
<text text-anchor="start" x="155.5" y="-126.8" font-family="Helvetica,sans-Serif" font-size="14.00">value = [0, 1, 3]</text>
<text text-anchor="start" x="154" y="-111.8" font-family="Helvetica,sans-Serif" font-size="14.00">class = virginica</text>
</g>
<!-- 3&#45;&gt;5 -->
<g id="edge5" class="edge">
<title>3&#45;&gt;5</title>
<path fill="none" stroke="black" d="M201.85,-222.91C201.92,-214.65 201.99,-205.86 202.07,-197.3"/>
<polygon fill="black" stroke="black" points="205.57,-197.05 202.15,-187.02 198.57,-196.99 205.57,-197.05"/>
</g>
<!-- 6 -->
<g id="node7" class="node">
<title>6</title>
<path fill="#8139e5" stroke="black" d="M115,-68C115,-68 26,-68 26,-68 20,-68 14,-62 14,-56 14,-56 14,-12 14,-12 14,-6 20,0 26,0 26,0 115,0 115,0 121,0 127,-6 127,-12 127,-12 127,-56 127,-56 127,-62 121,-68 115,-68"/>
<text text-anchor="start" x="42.5" y="-52.8" font-family="Helvetica,sans-Serif" font-size="14.00">gini = 0.0</text>
<text text-anchor="start" x="33" y="-37.8" font-family="Helvetica,sans-Serif" font-size="14.00">samples = 3</text>
<text text-anchor="start" x="23.5" y="-22.8" font-family="Helvetica,sans-Serif" font-size="14.00">value = [0, 0, 3]</text>
<text text-anchor="start" x="22" y="-7.8" font-family="Helvetica,sans-Serif" font-size="14.00">class = virginica</text>
</g>
<!-- 5&#45;&gt;6 -->
<g id="edge6" class="edge">
<title>5&#45;&gt;6</title>
<path fill="none" stroke="black" d="M153.35,-103.73C141.91,-94.24 129.76,-84.16 118.38,-74.72"/>
<polygon fill="black" stroke="black" points="120.57,-71.99 110.64,-68.3 116.1,-77.38 120.57,-71.99"/>
</g>
<!-- 7 -->
<g id="node8" class="node">
<title>7</title>
<path fill="#39e581" stroke="black" d="M254,-68C254,-68 157,-68 157,-68 151,-68 145,-62 145,-56 145,-56 145,-12 145,-12 145,-6 151,0 157,0 157,0 254,0 254,0 260,0 266,-6 266,-12 266,-12 266,-56 266,-56 266,-62 260,-68 254,-68"/>
<text text-anchor="start" x="177.5" y="-52.8" font-family="Helvetica,sans-Serif" font-size="14.00">gini = 0.0</text>
<text text-anchor="start" x="168" y="-37.8" font-family="Helvetica,sans-Serif" font-size="14.00">samples = 1</text>
<text text-anchor="start" x="158.5" y="-22.8" font-family="Helvetica,sans-Serif" font-size="14.00">value = [0, 1, 0]</text>
<text text-anchor="start" x="153" y="-7.8" font-family="Helvetica,sans-Serif" font-size="14.00">class = versicolor</text>
</g>
<!-- 5&#45;&gt;7 -->
<g id="edge7" class="edge">
<title>5&#45;&gt;7</title>
<path fill="none" stroke="black" d="M203.62,-103.73C203.84,-95.52 204.08,-86.86 204.31,-78.56"/>
<polygon fill="black" stroke="black" points="207.81,-78.39 204.59,-68.3 200.82,-78.2 207.81,-78.39"/>
</g>
<!-- 9 -->
<g id="node10" class="node">
<title>9</title>
<path fill="#c09cf2" stroke="black" d="M404,-187C404,-187 297,-187 297,-187 291,-187 285,-181 285,-175 285,-175 285,-116 285,-116 285,-110 291,-104 297,-104 297,-104 404,-104 404,-104 410,-104 416,-110 416,-116 416,-116 416,-175 416,-175 416,-181 410,-187 404,-187"/>
<text text-anchor="start" x="293" y="-171.8" font-family="Helvetica,sans-Serif" font-size="14.00">petal_length ≤ 4.65</text>
<text text-anchor="start" x="315" y="-156.8" font-family="Helvetica,sans-Serif" font-size="14.00">gini = 0.444</text>
<text text-anchor="start" x="313" y="-141.8" font-family="Helvetica,sans-Serif" font-size="14.00">samples = 3</text>
<text text-anchor="start" x="303.5" y="-126.8" font-family="Helvetica,sans-Serif" font-size="14.00">value = [0, 1, 2]</text>
<text text-anchor="start" x="302" y="-111.8" font-family="Helvetica,sans-Serif" font-size="14.00">class = virginica</text>
</g>
<!-- 8&#45;&gt;9 -->
<g id="edge9" class="edge">
<title>8&#45;&gt;9</title>
<path fill="none" stroke="black" d="M350.5,-222.91C350.5,-214.65 350.5,-205.86 350.5,-197.3"/>
<polygon fill="black" stroke="black" points="354,-197.02 350.5,-187.02 347,-197.02 354,-197.02"/>
</g>
<!-- 12 -->
<g id="node13" class="node">
<title>12</title>
<path fill="#8139e5" stroke="black" d="M539,-179.5C539,-179.5 446,-179.5 446,-179.5 440,-179.5 434,-173.5 434,-167.5 434,-167.5 434,-123.5 434,-123.5 434,-117.5 440,-111.5 446,-111.5 446,-111.5 539,-111.5 539,-111.5 545,-111.5 551,-117.5 551,-123.5 551,-123.5 551,-167.5 551,-167.5 551,-173.5 545,-179.5 539,-179.5"/>
<text text-anchor="start" x="464.5" y="-164.3" font-family="Helvetica,sans-Serif" font-size="14.00">gini = 0.0</text>
<text text-anchor="start" x="451.5" y="-149.3" font-family="Helvetica,sans-Serif" font-size="14.00">samples = 34</text>
<text text-anchor="start" x="442" y="-134.3" font-family="Helvetica,sans-Serif" font-size="14.00">value = [0, 0, 34]</text>
<text text-anchor="start" x="444" y="-119.3" font-family="Helvetica,sans-Serif" font-size="14.00">class = virginica</text>
</g>
<!-- 8&#45;&gt;12 -->
<g id="edge12" class="edge">
<title>8&#45;&gt;12</title>
<path fill="none" stroke="black" d="M399.77,-222.91C414.23,-210.99 430.03,-197.98 444.41,-186.12"/>
<polygon fill="black" stroke="black" points="446.75,-188.73 452.25,-179.67 442.3,-183.32 446.75,-188.73"/>
</g>
<!-- 10 -->
<g id="node11" class="node">
<title>10</title>
<path fill="#8139e5" stroke="black" d="M392,-68C392,-68 303,-68 303,-68 297,-68 291,-62 291,-56 291,-56 291,-12 291,-12 291,-6 297,0 303,0 303,0 392,0 392,0 398,0 404,-6 404,-12 404,-12 404,-56 404,-56 404,-62 398,-68 392,-68"/>
<text text-anchor="start" x="319.5" y="-52.8" font-family="Helvetica,sans-Serif" font-size="14.00">gini = 0.0</text>
<text text-anchor="start" x="310" y="-37.8" font-family="Helvetica,sans-Serif" font-size="14.00">samples = 1</text>
<text text-anchor="start" x="300.5" y="-22.8" font-family="Helvetica,sans-Serif" font-size="14.00">value = [0, 0, 1]</text>
<text text-anchor="start" x="299" y="-7.8" font-family="Helvetica,sans-Serif" font-size="14.00">class = virginica</text>
</g>
<!-- 9&#45;&gt;10 -->
<g id="edge10" class="edge">
<title>9&#45;&gt;10</title>
<path fill="none" stroke="black" d="M349.38,-103.73C349.16,-95.52 348.92,-86.86 348.69,-78.56"/>
<polygon fill="black" stroke="black" points="352.18,-78.2 348.41,-68.3 345.19,-78.39 352.18,-78.2"/>
</g>
<!-- 11 -->
<g id="node12" class="node">
<title>11</title>
<path fill="#ffffff" stroke="black" d="M531,-68C531,-68 434,-68 434,-68 428,-68 422,-62 422,-56 422,-56 422,-12 422,-12 422,-6 428,0 434,0 434,0 531,0 531,0 537,0 543,-6 543,-12 543,-12 543,-56 543,-56 543,-62 537,-68 531,-68"/>
<text text-anchor="start" x="454.5" y="-52.8" font-family="Helvetica,sans-Serif" font-size="14.00">gini = 0.5</text>
<text text-anchor="start" x="445" y="-37.8" font-family="Helvetica,sans-Serif" font-size="14.00">samples = 2</text>
<text text-anchor="start" x="435.5" y="-22.8" font-family="Helvetica,sans-Serif" font-size="14.00">value = [0, 1, 1]</text>
<text text-anchor="start" x="430" y="-7.8" font-family="Helvetica,sans-Serif" font-size="14.00">class = versicolor</text>
</g>
<!-- 9&#45;&gt;11 -->
<g id="edge11" class="edge">
<title>9&#45;&gt;11</title>
<path fill="none" stroke="black" d="M399.65,-103.73C411.09,-94.24 423.24,-84.16 434.62,-74.72"/>
<polygon fill="black" stroke="black" points="436.9,-77.38 442.36,-68.3 432.43,-71.99 436.9,-77.38"/>
</g>
</g>
</svg>