<?xml version="1.0" encoding="UTF-8" standalone="no"?>
<!DOCTYPE svg PUBLIC "-//W3C//DTD SVG 1.1//EN"
 "http://www.w3.org/Graphics/SVG/1.1/DTD/svg11.dtd">
<!-- Generated by graphviz version 9.0.0 (20231125.0833)
 -->
<!-- Title: Tree Pages: 1 -->
<svg width="849pt" height="294pt"
 viewBox="0.00 0.00 849.00 293.75" xmlns="http://www.w3.org/2000/svg" xmlns:xlink="http://www.w3.org/1999/xlink">
<g id="graph0" class="graph" transform="scale(1 1) rotate(0) translate(4 289.75)">
<title>Tree</title>
<polygon fill="white" stroke="none" points="-4,4 -4,-289.75 845,-289.75 845,4 -4,4"/>
<!-- 0 -->
<g id="node1" class="node">
<title>0</title>
<path fill="#f4c9ab" stroke="black" d="M501,-285.75C501,-285.75 324.5,-285.75 324.5,-285.75 318.5,-285.75 312.5,-279.75 312.5,-273.75 312.5,-273.75 312.5,-220.75 312.5,-220.75 312.5,-214.75 318.5,-208.75 324.5,-208.75 324.5,-208.75 501,-208.75 501,-208.75 507,-208.75 513,-214.75 513,-220.75 513,-220.75 513,-273.75 513,-273.75 513,-279.75 507,-285.75 501,-285.75"/>
<text text-anchor="start" x="371.12" y="-268.45" font-family="Helvetica,sans-Serif" font-size="14.00">s5 ≤ &#45;0.004</text>
<text text-anchor="start" x="320.5" y="-251.2" font-family="Helvetica,sans-Serif" font-size="14.00">squared_error = 6017.999</text>
<text text-anchor="start" x="359.88" y="-233.95" font-family="Helvetica,sans-Serif" font-size="14.00">samples = 353</text>
<text text-anchor="start" x="354.25" y="-216.7" font-family="Helvetica,sans-Serif" font-size="14.00">value = 150.459</text>
</g>
<!-- 1 -->
<g id="node2" class="node">
<title>1</title>
<path fill="#fdf3ec" stroke="black" d="M392,-172.75C392,-172.75 215.5,-172.75 215.5,-172.75 209.5,-172.75 203.5,-166.75 203.5,-160.75 203.5,-160.75 203.5,-107.75 203.5,-107.75 203.5,-101.75 209.5,-95.75 215.5,-95.75 215.5,-95.75 392,-95.75 392,-95.75 398,-95.75 404,-101.75 404,-107.75 404,-107.75 404,-160.75 404,-160.75 404,-166.75 398,-172.75 392,-172.75"/>
<text text-anchor="start" x="259.88" y="-155.45" font-family="Helvetica,sans-Serif" font-size="14.00">bmi ≤ 0.006</text>
<text text-anchor="start" x="211.5" y="-138.2" font-family="Helvetica,sans-Serif" font-size="14.00">squared_error = 3016.074</text>
<text text-anchor="start" x="250.88" y="-120.95" font-family="Helvetica,sans-Serif" font-size="14.00">samples = 174</text>
<text text-anchor="start" x="245.25" y="-103.7" font-family="Helvetica,sans-Serif" font-size="14.00">value = 105.695</text>
</g>
<!-- 0&#45;&gt;1 -->
<g id="edge1" class="edge">
<title>0&#45;&gt;1</title>
<path fill="none" stroke="black" d="M375.54,-208.36C366.95,-199.61 357.72,-190.21 348.83,-181.15"/>
<polygon fill="black" stroke="black" points="351.35,-178.73 341.85,-174.05 346.36,-183.64 351.35,-178.73"/>
<text text-anchor="middle" x="340.56" y="-193.29" font-family="Helvetica,sans-Serif" font-size="14.00">True</text>
</g>
<!-- 4 -->
<g id="node5" class="node">
<title>4</title>
<path fill="#eca16b" stroke="black" d="M611,-172.75C611,-172.75 434.5,-172.75 434.5,-172.75 428.5,-172.75 422.5,-166.75 422.5,-160.75 422.5,-160.75 422.5,-107.75 422.5,-107.75 422.5,-101.75 428.5,-95.75 434.5,-95.75 434.5,-95.75 611,-95.75 611,-95.75 617,-95.75 623,-101.75 623,-107.75 623,-107.75 623,-160.75 623,-160.75 623,-166.75 617,-172.75 611,-172.75"/>
<text text-anchor="start" x="478.88" y="-155.45" font-family="Helvetica,sans-Serif" font-size="14.00">bmi ≤ 0.018</text>
<text text-anchor="start" x="430.5" y="-138.2" font-family="Helvetica,sans-Serif" font-size="14.00">squared_error = 5094.876</text>
<text text-anchor="start" x="469.88" y="-120.95" font-family="Helvetica,sans-Serif" font-size="14.00">samples = 179</text>
<text text-anchor="start" x="464.25" y="-103.7" font-family="Helvetica,sans-Serif" font-size="14.00">value = 193.972</text>
</g>
<!-- 0&#45;&gt;4 -->
<g id="edge4" class="edge">
<title>0&#45;&gt;4</title>
<path fill="none" stroke="black" d="M450.3,-208.36C459.06,-199.52 468.48,-190.01 477.53,-180.88"/>
<polygon fill="black" stroke="black" points="479.75,-183.61 484.31,-174.04 474.78,-178.68 479.75,-183.61"/>
<text text-anchor="middle" x="485.48" y="-193.29" font-family="Helvetica,sans-Serif" font-size="14.00">False</text>
</g>
<!-- 2 -->
<g id="node3" class="node">
<title>2</title>
<path fill="#ffffff" stroke="black" d="M179.5,-59.75C179.5,-59.75 12,-59.75 12,-59.75 6,-59.75 0,-53.75 0,-47.75 0,-47.75 0,-12 0,-12 0,-6 6,0 12,0 12,0 179.5,0 179.5,0 185.5,0 191.5,-6 191.5,-12 191.5,-12 191.5,-47.75 191.5,-47.75 191.5,-53.75 185.5,-59.75 179.5,-59.75"/>
<text text-anchor="start" x="8" y="-42.45" font-family="Helvetica,sans-Serif" font-size="14.00">squared_error = 1922.19</text>
<text text-anchor="start" x="42.88" y="-25.2" font-family="Helvetica,sans-Serif" font-size="14.00">samples = 139</text>
<text text-anchor="start" x="41.75" y="-7.95" font-family="Helvetica,sans-Serif" font-size="14.00">value = 93.065</text>
</g>
<!-- 1&#45;&gt;2 -->
<g id="edge2" class="edge">
<title>1&#45;&gt;2</title>
<path fill="none" stroke="black" d="M226.59,-95.27C206.51,-85.39 184.99,-74.8 165.32,-65.12"/>
<polygon fill="black" stroke="black" points="167.1,-62.09 156.58,-60.82 164.01,-68.37 167.1,-62.09"/>
</g>
<!-- 3 -->
<g id="node4" class="node">
<title>3</title>
<path fill="#f3c4a3" stroke="black" d="M389.5,-59.75C389.5,-59.75 222,-59.75 222,-59.75 216,-59.75 210,-53.75 210,-47.75 210,-47.75 210,-12 210,-12 210,-6 216,0 222,0 222,0 389.5,0 389.5,0 395.5,0 401.5,-6 401.5,-12 401.5,-12 401.5,-47.75 401.5,-47.75 401.5,-53.75 395.5,-59.75 389.5,-59.75"/>
<text text-anchor="start" x="218" y="-42.45" font-family="Helvetica,sans-Serif" font-size="14.00">squared_error = 4210.58</text>
<text text-anchor="start" x="257.38" y="-25.2" font-family="Helvetica,sans-Serif" font-size="14.00">samples = 35</text>
<text text-anchor="start" x="247.25" y="-7.95" font-family="Helvetica,sans-Serif" font-size="14.00">value = 155.857</text>
</g>
<!-- 1&#45;&gt;3 -->
<g id="edge3" class="edge">
<title>1&#45;&gt;3</title>
<path fill="none" stroke="black" d="M304.49,-95.42C304.64,-87.7 304.8,-79.55 304.95,-71.74"/>
<polygon fill="black" stroke="black" points="308.45,-71.81 305.15,-61.74 301.45,-71.67 308.45,-71.81"/>
</g>
<!-- 5 -->
<g id="node6" class="node">
<title>5</title>
<path fill="#f1bb94" stroke="black" d="M610,-59.75C610,-59.75 433.5,-59.75 433.5,-59.75 427.5,-59.75 421.5,-53.75 421.5,-47.75 421.5,-47.75 421.5,-12 421.5,-12 421.5,-6 427.5,0 433.5,0 433.5,0 610,0 610,0 616,0 622,-6 622,-12 622,-12 622,-47.75 622,-47.75 622,-53.75 616,-59.75 610,-59.75"/>
<text text-anchor="start" x="429.5" y="-42.45" font-family="Helvetica,sans-Serif" font-size="14.00">squared_error = 4095.835</text>
<text text-anchor="start" x="473.38" y="-25.2" font-family="Helvetica,sans-Serif" font-size="14.00">samples = 99</text>
<text text-anchor="start" x="463.25" y="-7.95" font-family="Helvetica,sans-Serif" font-size="14.00">value = 166.323</text>
</g>
<!-- 4&#45;&gt;5 -->
<g id="edge5" class="edge">
<title>4&#45;&gt;5</title>
<path fill="none" stroke="black" d="M522.38,-95.42C522.31,-87.7 522.23,-79.55 522.15,-71.74"/>
<polygon fill="black" stroke="black" points="525.65,-71.71 522.05,-61.74 518.65,-71.78 525.65,-71.71"/>
</g>
<!-- 6 -->
<g id="node7" class="node">
<title>6</title>
<path fill="#e58139" stroke="black" d="M829,-59.75C829,-59.75 652.5,-59.75 652.5,-59.75 646.5,-59.75 640.5,-53.75 640.5,-47.75 640.5,-47.75 640.5,-12 640.5,-12 640.5,-6 646.5,0 652.5,0 652.5,0 829,0 829,0 835,0 841,-6 841,-12 841,-12 841,-47.75 841,-47.75 841,-53.75 835,-59.75 829,-59.75"/>
<text text-anchor="start" x="648.5" y="-42.45" font-family="Helvetica,sans-Serif" font-size="14.00">squared_error = 4214.477</text>
<text text-anchor="start" x="692.38" y="-25.2" font-family="Helvetica,sans-Serif" font-size="14.00">samples = 80</text>
<text text-anchor="start" x="682.25" y="-7.95" font-family="Helvetica,sans-Serif" font-size="14.00">value = 228.188</text>
</g>
<!-- 4&#45;&gt;6 -->
<g id="edge6" class="edge">
<title>4&#45;&gt;6</title>
<path fill="none" stroke="black" d="M603.62,-95.27C624.76,-85.34 647.43,-74.7 668.11,-64.99"/>
<polygon fill="black" stroke="black" points="669.48,-68.21 677.04,-60.79 666.51,-61.87 669.48,-68.21"/>
</g>
</g>
</svg>