<?xml version="1.0" encoding="UTF-8" standalone="no"?>
<!DOCTYPE svg PUBLIC "-//W3C//DTD SVG 1.1//EN"
 "http://www.w3.org/Graphics/SVG/1.1/DTD/svg11.dtd">
<!-- Generated by graphviz version 2.43.0 (0)
 -->
<!-- Title: Tree Pages: 1 -->
<svg width="349pt" height="314pt"
 viewBox="0.00 0.00 349.00 314.00" xmlns="http://www.w3.org/2000/svg" xmlns:xlink="http://www.w3.org/1999/xlink">
<g id="graph0" class="graph" transform="scale(1 1) rotate(0) translate(4 310)">
<title>Tree</title>
<polygon fill="white" stroke="transparent" points="-4,4 -4,-310 345,-310 345,4 -4,4"/>
<!-- 0 -->
<g id="node1" class="node">
<title>0</title>
<path fill="#fdfcff" stroke="black" d="M190.5,-306C190.5,-306 82.5,-306 82.5,-306 76.5,-306 70.5,-300 70.5,-294 70.5,-294 70.5,-235 70.5,-235 70.5,-229 76.5,-223 82.5,-223 82.5,-223 190.5,-223 190.5,-223 196.5,-223 202.5,-229 202.5,-235 202.5,-235 202.5,-294 202.5,-294 202.5,-300 196.5,-306 190.5,-306"/>
<text text-anchor="start" x="79" y="-290.8" font-family="Helvetica,sans-Serif" font-size="14.00">petal_length ≤ 2.45</text>
<text text-anchor="start" x="101" y="-275.8" font-family="Helvetica,sans-Serif" font-size="14.00">gini = 0.666</text>
<text text-anchor="start" x="92" y="-260.8" font-family="Helvetica,sans-Serif" font-size="14.00">samples = 112</text>
<text text-anchor="start" x="78.5" y="-245.8" font-family="Helvetica,sans-Serif" font-size="14.00">value = [35, 38, 39]</text>
<text text-anchor="start" x="88" y="-230.8" font-family="Helvetica,sans-Serif" font-size="14.00">class = virginica</text>
</g>
<!-- 1 -->
<g id="node2" class="node">
<title>1</title>
<path fill="#e58139" stroke="black" d="M105,-179.5C105,-179.5 12,-179.5 12,-179.5 6,-179.5 0,-173.5 0,-167.5 0,-167.5 0,-123.5 0,-123.5 0,-117.5 6,-111.5 12,-111.5 12,-111.5 105,-111.5 105,-111.5 111,-111.5 117,-117.5 117,-123.5 117,-123.5 117,-167.5 117,-167.5 117,-173.5 111,-179.5 105,-179.5"/>
<text text-anchor="start" x="30.5" y="-164.3" font-family="Helvetica,sans-Serif" font-size="14.00">gini = 0.0</text>
<text text-anchor="start" x="17.5" y="-149.3" font-family="Helvetica,sans-Serif" font-size="14.00">samples = 35</text>
<text text-anchor="start" x="8" y="-134.3" font-family="Helvetica,sans-Serif" font-size="14.00">value = [35, 0, 0]</text>
<text text-anchor="start" x="15" y="-119.3" font-family="Helvetica,sans-Serif" font-size="14.00">class = setosa</text>
</g>
<!-- 0&#45;&gt;1 -->
<g id="edge1" class="edge">
<title>0&#45;&gt;1</title>
<path fill="none" stroke="black" d="M109.44,-222.91C101.93,-211.65 93.78,-199.42 86.24,-188.11"/>
<polygon fill="black" stroke="black" points="89.07,-186.05 80.61,-179.67 83.25,-189.93 89.07,-186.05"/>
<text text-anchor="middle" x="75.71" y="-200.48" font-family="Helvetica,sans-Serif" font-size="14.00">True</text>
</g>
<!-- 2 -->
<g id="node3" class="node">
<title>2</title>
<path fill="#fcfafe" stroke="black" d="M281.5,-187C281.5,-187 147.5,-187 147.5,-187 141.5,-187 135.5,-181 135.5,-175 135.5,-175 135.5,-116 135.5,-116 135.5,-110 141.5,-104 147.5,-104 147.5,-104 281.5,-104 281.5,-104 287.5,-104 293.5,-110 293.5,-116 293.5,-116 293.5,-175 293.5,-175 293.5,-181 287.5,-187 281.5,-187"/>
<text text-anchor="start" x="159.5" y="-171.8" font-family="Helvetica,sans-Serif" font-size="14.00">petal_width ≤ 1.65</text>
<text text-anchor="start" x="186.5" y="-156.8" font-family="Helvetica,sans-Serif" font-size="14.00">gini = 0.5</text>
<text text-anchor="start" x="173.5" y="-141.8" font-family="Helvetica,sans-Serif" font-size="14.00">samples = 77</text>
<text text-anchor="start" x="143.5" y="-126.8" font-family="Helvetica,sans-Serif" font-size="14.00">value = [0.0, 38.0, 39.0]</text>
<text text-anchor="start" x="166" y="-111.8" font-family="Helvetica,sans-Serif" font-size="14.00">class = virginica</text>
</g>
<!-- 0&#45;&gt;2 -->
<g id="edge2" class="edge">
<title>0&#45;&gt;2</title>
<path fill="none" stroke="black" d="M163.56,-222.91C169.43,-214.1 175.7,-204.7 181.76,-195.61"/>
<polygon fill="black" stroke="black" points="184.85,-197.28 187.49,-187.02 179.03,-193.4 184.85,-197.28"/>
<text text-anchor="middle" x="192.39" y="-207.84" font-family="Helvetica,sans-Serif" font-size="14.00">False</text>
</g>
<!-- 3 -->
<g id="node4" class="node">
<title>3</title>
<path fill="#49e78b" stroke="black" d="M194,-68C194,-68 97,-68 97,-68 91,-68 85,-62 85,-56 85,-56 85,-12 85,-12 85,-6 91,0 97,0 97,0 194,0 194,0 200,0 206,-6 206,-12 206,-12 206,-56 206,-56 206,-62 200,-68 194,-68"/>
<text text-anchor="start" x="110" y="-52.8" font-family="Helvetica,sans-Serif" font-size="14.00">gini = 0.139</text>
<text text-anchor="start" x="104.5" y="-37.8" font-family="Helvetica,sans-Serif" font-size="14.00">samples = 40</text>
<text text-anchor="start" x="95" y="-22.8" font-family="Helvetica,sans-Serif" font-size="14.00">value = [0, 37, 3]</text>
<text text-anchor="start" x="93" y="-7.8" font-family="Helvetica,sans-Serif" font-size="14.00">class = versicolor</text>
</g>
<!-- 2&#45;&gt;3 -->
<g id="edge3" class="edge">
<title>2&#45;&gt;3</title>
<path fill="none" stroke="black" d="M188.81,-103.73C183.29,-94.97 177.45,-85.7 171.91,-76.91"/>
<polygon fill="black" stroke="black" points="174.78,-74.89 166.48,-68.3 168.85,-78.63 174.78,-74.89"/>
</g>
<!-- 4 -->
<g id="node5" class="node">
<title>4</title>
<path fill="#843ee6" stroke="black" d="M329,-68C329,-68 236,-68 236,-68 230,-68 224,-62 224,-56 224,-56 224,-12 224,-12 224,-6 230,0 236,0 236,0 329,0 329,0 335,0 341,-6 341,-12 341,-12 341,-56 341,-56 341,-62 335,-68 329,-68"/>
<text text-anchor="start" x="247" y="-52.8" font-family="Helvetica,sans-Serif" font-size="14.00">gini = 0.053</text>
<text text-anchor="start" x="241.5" y="-37.8" font-family="Helvetica,sans-Serif" font-size="14.00">samples = 37</text>
<text text-anchor="start" x="232" y="-22.8" font-family="Helvetica,sans-Serif" font-size="14.00">value = [0, 1, 36]</text>
<text text-anchor="start" x="234" y="-7.8" font-family="Helvetica,sans-Serif" font-size="14.00">class = virginica</text>
</g>
<!-- 2&#45;&gt;4 -->
<g id="edge4" class="edge">
<title>2&#45;&gt;4</title>
<path fill="none" stroke="black" d="M239.82,-103.73C245.26,-94.97 251.01,-85.7 256.48,-76.91"/>
<polygon fill="black" stroke="black" points="259.52,-78.64 261.82,-68.3 253.57,-74.95 259.52,-78.64"/>
</g>
</g>
</svg>