<?xml version="1.0" encoding="UTF-8" standalone="no"?>
<!DOCTYPE svg PUBLIC "-//W3C//DTD SVG 1.1//EN"
 "http://www.w3.org/Graphics/SVG/1.1/DTD/svg11.dtd">
<!-- Generated by graphviz version 14.1.2 (20260126.1125)
 -->
<!-- Title: Tree Pages: 1 -->
<svg width="407pt" height="346pt"
 viewBox="0.00 0.00 407.00 346.00" xmlns="http://www.w3.org/2000/svg" xmlns:xlink="http://www.w3.org/1999/xlink">
<g id="graph0" class="graph" transform="scale(1 1) rotate(0) translate(4 341.5)">
<title>Tree</title>
<polygon fill="white" stroke="none" points="-4,4 -4,-341.5 403,-341.5 403,4 -4,4"/>
<!-- 0 -->
<g id="node1" class="node">
<title>0</title>
<path fill="#fdfcff" stroke="black" d="M227,-337.5C227,-337.5 94,-337.5 94,-337.5 88,-337.5 82,-331.5 82,-325.5 82,-325.5 82,-255.25 82,-255.25 82,-249.25 88,-243.25 94,-243.25 94,-243.25 227,-243.25 227,-243.25 233,-243.25 239,-249.25 239,-255.25 239,-255.25 239,-325.5 239,-325.5 239,-331.5 233,-337.5 227,-337.5"/>
<text xml:space="preserve" text-anchor="start" x="91.5" y="-320.2" font-family="Helvetica,sans-Serif" font-size="14.00">petal_length ≤ 2.45</text>
<text xml:space="preserve" text-anchor="start" x="117" y="-302.95" font-family="Helvetica,sans-Serif" font-size="14.00">gini = 0.666</text>
<text xml:space="preserve" text-anchor="start" x="107.62" y="-285.7" font-family="Helvetica,sans-Serif" font-size="14.00">samples = 112</text>
<text xml:space="preserve" text-anchor="start" x="90" y="-268.45" font-family="Helvetica,sans-Serif" font-size="14.00">value = [35, 38, 39]</text>
<text xml:space="preserve" text-anchor="start" x="103.5" y="-251.2" font-family="Helvetica,sans-Serif" font-size="14.00">class = virginica</text>
</g>
<!-- 1 -->
<g id="node2" class="node">
<title>1</title>
<path fill="#e58139" stroke="black" d="M127,-198.62C127,-198.62 12,-198.62 12,-198.62 6,-198.62 0,-192.62 0,-186.62 0,-186.62 0,-133.62 0,-133.62 0,-127.62 6,-121.62 12,-121.62 12,-121.62 127,-121.62 127,-121.62 133,-121.62 139,-127.62 139,-133.62 139,-133.62 139,-186.62 139,-186.62 139,-192.62 133,-198.62 127,-198.62"/>
<text xml:space="preserve" text-anchor="start" x="35" y="-181.32" font-family="Helvetica,sans-Serif" font-size="14.00">gini = 0.0</text>
<text xml:space="preserve" text-anchor="start" x="21.12" y="-164.07" font-family="Helvetica,sans-Serif" font-size="14.00">samples = 35</text>
<text xml:space="preserve" text-anchor="start" x="8" y="-146.82" font-family="Helvetica,sans-Serif" font-size="14.00">value = [35, 0, 0]</text>
<text xml:space="preserve" text-anchor="start" x="19.25" y="-129.57" font-family="Helvetica,sans-Serif" font-size="14.00">class = setosa</text>
</g>
<!-- 0&#45;&gt;1 -->
<g id="edge1" class="edge">
<title>0&#45;&gt;1</title>
<path fill="none" stroke="black" d="M127.65,-243.07C119.61,-231.75 111.01,-219.62 102.95,-208.26"/>
<polygon fill="black" stroke="black" points="105.84,-206.3 97.2,-200.17 100.13,-210.35 105.84,-206.3"/>
<text xml:space="preserve" text-anchor="middle" x="92.14" y="-218.9" font-family="Helvetica,sans-Serif" font-size="14.00">True</text>
</g>
<!-- 2 -->
<g id="node3" class="node">
<title>2</title>
<path fill="#fcfafe" stroke="black" d="M333.75,-207.25C333.75,-207.25 169.25,-207.25 169.25,-207.25 163.25,-207.25 157.25,-201.25 157.25,-195.25 157.25,-195.25 157.25,-125 157.25,-125 157.25,-119 163.25,-113 169.25,-113 169.25,-113 333.75,-113 333.75,-113 339.75,-113 345.75,-119 345.75,-125 345.75,-125 345.75,-195.25 345.75,-195.25 345.75,-201.25 339.75,-207.25 333.75,-207.25"/>
<text xml:space="preserve" text-anchor="start" x="185.5" y="-189.95" font-family="Helvetica,sans-Serif" font-size="14.00">petal_width ≤ 1.65</text>
<text xml:space="preserve" text-anchor="start" x="217" y="-172.7" font-family="Helvetica,sans-Serif" font-size="14.00">gini = 0.5</text>
<text xml:space="preserve" text-anchor="start" x="203.12" y="-155.45" font-family="Helvetica,sans-Serif" font-size="14.00">samples = 77</text>
<text xml:space="preserve" text-anchor="start" x="165.25" y="-138.2" font-family="Helvetica,sans-Serif" font-size="14.00">value = [0.0, 38.0, 39.0]</text>
<text xml:space="preserve" text-anchor="start" x="194.5" y="-120.95" font-family="Helvetica,sans-Serif" font-size="14.00">class = virginica</text>
</g>
<!-- 0&#45;&gt;2 -->
<g id="edge2" class="edge">
<title>0&#45;&gt;2</title>
<path fill="none" stroke="black" d="M193.35,-243.07C199.47,-234.45 205.93,-225.35 212.22,-216.49"/>
<polygon fill="black" stroke="black" points="214.89,-218.77 217.82,-208.59 209.18,-214.72 214.89,-218.77"/>
<text xml:space="preserve" text-anchor="middle" x="222.88" y="-227.33" font-family="Helvetica,sans-Serif" font-size="14.00">False</text>
</g>
<!-- 3 -->
<g id="node4" class="node">
<title>3</title>
<path fill="#49e78b" stroke="black" d="M230,-77C230,-77 115,-77 115,-77 109,-77 103,-71 103,-65 103,-65 103,-12 103,-12 103,-6 109,0 115,0 115,0 230,0 230,0 236,0 242,-6 242,-12 242,-12 242,-65 242,-65 242,-71 236,-77 230,-77"/>
<text xml:space="preserve" text-anchor="start" x="129" y="-59.7" font-family="Helvetica,sans-Serif" font-size="14.00">gini = 0.139</text>
<text xml:space="preserve" text-anchor="start" x="124.12" y="-42.45" font-family="Helvetica,sans-Serif" font-size="14.00">samples = 40</text>
<text xml:space="preserve" text-anchor="start" x="111" y="-25.2" font-family="Helvetica,sans-Serif" font-size="14.00">value = [0, 37, 3]</text>
<text xml:space="preserve" text-anchor="start" x="111" y="-7.95" font-family="Helvetica,sans-Serif" font-size="14.00">class = versicolor</text>
</g>
<!-- 2&#45;&gt;3 -->
<g id="edge3" class="edge">
<title>2&#45;&gt;3</title>
<path fill="none" stroke="black" d="M220.73,-112.53C215.13,-104.05 209.28,-95.19 203.66,-86.69"/>
<polygon fill="black" stroke="black" points="206.72,-84.96 198.28,-78.54 200.87,-88.82 206.72,-84.96"/>
</g>
<!-- 4 -->
<g id="node5" class="node">
<title>4</title>
<path fill="#843ee6" stroke="black" d="M387,-77C387,-77 272,-77 272,-77 266,-77 260,-71 260,-65 260,-65 260,-12 260,-12 260,-6 266,0 272,0 272,0 387,0 387,0 393,0 399,-6 399,-12 399,-12 399,-65 399,-65 399,-71 393,-77 387,-77"/>
<text xml:space="preserve" text-anchor="start" x="286" y="-59.7" font-family="Helvetica,sans-Serif" font-size="14.00">gini = 0.053</text>
<text xml:space="preserve" text-anchor="start" x="281.12" y="-42.45" font-family="Helvetica,sans-Serif" font-size="14.00">samples = 37</text>
<text xml:space="preserve" text-anchor="start" x="268" y="-25.2" font-family="Helvetica,sans-Serif" font-size="14.00">value = [0, 1, 36]</text>
<text xml:space="preserve" text-anchor="start" x="272.5" y="-7.95" font-family="Helvetica,sans-Serif" font-size="14.00">class = virginica</text>
</g>
<!-- 2&#45;&gt;4 -->
<g id="edge4" class="edge">
<title>2&#45;&gt;4</title>
<path fill="none" stroke="black" d="M281.88,-112.53C287.41,-104.05 293.19,-95.19 298.73,-86.69"/>
<polygon fill="black" stroke="black" points="301.51,-88.84 304.04,-78.55 295.65,-85.01 301.51,-88.84"/>
</g>
</g>
</svg>