<?xml version="1.0" encoding="UTF-8" standalone="no"?>
<!DOCTYPE svg PUBLIC "-//W3C//DTD SVG 1.1//EN"
 "http://www.w3.org/Graphics/SVG/1.1/DTD/svg11.dtd">
<!-- Generated by graphviz version 2.43.0 (0)
 -->
<!-- Title: Tree Pages: 1 -->
<svg width="742pt" height="269pt"
 viewBox="0.00 0.00 741.50 269.00" xmlns="http://www.w3.org/2000/svg" xmlns:xlink="http://www.w3.org/1999/xlink">
<g id="graph0" class="graph" transform="scale(1 1) rotate(0) translate(4 265)">
<title>Tree</title>
<polygon fill="white" stroke="transparent" points="-4,4 -4,-265 737.5,-265 737.5,4 -4,4"/>
<!-- 0 -->
<g id="node1" class="node">
<title>0</title>
<path fill="#f4c9ab" stroke="black" d="M435.5,-261C435.5,-261 286.5,-261 286.5,-261 280.5,-261 274.5,-255 274.5,-249 274.5,-249 274.5,-205 274.5,-205 274.5,-199 280.5,-193 286.5,-193 286.5,-193 435.5,-193 435.5,-193 441.5,-193 447.5,-199 447.5,-205 447.5,-205 447.5,-249 447.5,-249 447.5,-255 441.5,-261 435.5,-261"/>
<text text-anchor="start" x="327" y="-245.8" font-family="Helvetica,sans-Serif" font-size="14.00">s5 ≤ &#45;0.004</text>
<text text-anchor="start" x="282.5" y="-230.8" font-family="Helvetica,sans-Serif" font-size="14.00">squared_error = 6017.999</text>
<text text-anchor="start" x="316" y="-215.8" font-family="Helvetica,sans-Serif" font-size="14.00">samples = 353</text>
<text text-anchor="start" x="312.5" y="-200.8" font-family="Helvetica,sans-Serif" font-size="14.00">value = 150.459</text>
</g>
<!-- 1 -->
<g id="node2" class="node">
<title>1</title>
<path fill="#fdf3ec" stroke="black" d="M340.5,-157C340.5,-157 191.5,-157 191.5,-157 185.5,-157 179.5,-151 179.5,-145 179.5,-145 179.5,-101 179.5,-101 179.5,-95 185.5,-89 191.5,-89 191.5,-89 340.5,-89 340.5,-89 346.5,-89 352.5,-95 352.5,-101 352.5,-101 352.5,-145 352.5,-145 352.5,-151 346.5,-157 340.5,-157"/>
<text text-anchor="start" x="230" y="-141.8" font-family="Helvetica,sans-Serif" font-size="14.00">bmi ≤ 0.006</text>
<text text-anchor="start" x="187.5" y="-126.8" font-family="Helvetica,sans-Serif" font-size="14.00">squared_error = 3016.074</text>
<text text-anchor="start" x="221" y="-111.8" font-family="Helvetica,sans-Serif" font-size="14.00">samples = 174</text>
<text text-anchor="start" x="217.5" y="-96.8" font-family="Helvetica,sans-Serif" font-size="14.00">value = 105.695</text>
</g>
<!-- 0&#45;&gt;1 -->
<g id="edge1" class="edge">
<title>0&#45;&gt;1</title>
<path fill="none" stroke="black" d="M330.16,-192.88C321.78,-183.89 312.61,-174.04 303.89,-164.68"/>
<polygon fill="black" stroke="black" points="306.39,-162.23 297.01,-157.3 301.27,-167 306.39,-162.23"/>
<text text-anchor="middle" x="296.13" y="-178.58" font-family="Helvetica,sans-Serif" font-size="14.00">True</text>
</g>
<!-- 4 -->
<g id="node5" class="node">
<title>4</title>
<path fill="#eca16b" stroke="black" d="M531.5,-157C531.5,-157 382.5,-157 382.5,-157 376.5,-157 370.5,-151 370.5,-145 370.5,-145 370.5,-101 370.5,-101 370.5,-95 376.5,-89 382.5,-89 382.5,-89 531.5,-89 531.5,-89 537.5,-89 543.5,-95 543.5,-101 543.5,-101 543.5,-145 543.5,-145 543.5,-151 537.5,-157 531.5,-157"/>
<text text-anchor="start" x="421" y="-141.8" font-family="Helvetica,sans-Serif" font-size="14.00">bmi ≤ 0.018</text>
<text text-anchor="start" x="378.5" y="-126.8" font-family="Helvetica,sans-Serif" font-size="14.00">squared_error = 5094.876</text>
<text text-anchor="start" x="412" y="-111.8" font-family="Helvetica,sans-Serif" font-size="14.00">samples = 179</text>
<text text-anchor="start" x="408.5" y="-96.8" font-family="Helvetica,sans-Serif" font-size="14.00">value = 193.972</text>
</g>
<!-- 0&#45;&gt;4 -->
<g id="edge4" class="edge">
<title>0&#45;&gt;4</title>
<path fill="none" stroke="black" d="M392.17,-192.88C400.64,-183.89 409.9,-174.04 418.71,-164.68"/>
<polygon fill="black" stroke="black" points="421.35,-166.98 425.66,-157.3 416.26,-162.18 421.35,-166.98"/>
<text text-anchor="middle" x="426.42" y="-178.59" font-family="Helvetica,sans-Serif" font-size="14.00">False</text>
</g>
<!-- 2 -->
<g id="node3" class="node">
<title>2</title>
<path fill="#ffffff" stroke="black" d="M154,-53C154,-53 12,-53 12,-53 6,-53 0,-47 0,-41 0,-41 0,-12 0,-12 0,-6 6,0 12,0 12,0 154,0 154,0 160,0 166,-6 166,-12 166,-12 166,-41 166,-41 166,-47 160,-53 154,-53"/>
<text text-anchor="start" x="8" y="-37.8" font-family="Helvetica,sans-Serif" font-size="14.00">squared_error = 1922.19</text>
<text text-anchor="start" x="38" y="-22.8" font-family="Helvetica,sans-Serif" font-size="14.00">samples = 139</text>
<text text-anchor="start" x="38" y="-7.8" font-family="Helvetica,sans-Serif" font-size="14.00">value = 93.065</text>
</g>
<!-- 1&#45;&gt;2 -->
<g id="edge2" class="edge">
<title>1&#45;&gt;2</title>
<path fill="none" stroke="black" d="M202,-88.95C182.33,-78.79 160.8,-67.67 141.52,-57.72"/>
<polygon fill="black" stroke="black" points="143.04,-54.57 132.55,-53.09 139.83,-60.78 143.04,-54.57"/>
</g>
<!-- 3 -->
<g id="node4" class="node">
<title>3</title>
<path fill="#f3c4a3" stroke="black" d="M338,-53C338,-53 196,-53 196,-53 190,-53 184,-47 184,-41 184,-41 184,-12 184,-12 184,-6 190,0 196,0 196,0 338,0 338,0 344,0 350,-6 350,-12 350,-12 350,-41 350,-41 350,-47 344,-53 338,-53"/>
<text text-anchor="start" x="192" y="-37.8" font-family="Helvetica,sans-Serif" font-size="14.00">squared_error = 4210.58</text>
<text text-anchor="start" x="226" y="-22.8" font-family="Helvetica,sans-Serif" font-size="14.00">samples = 35</text>
<text text-anchor="start" x="218.5" y="-7.8" font-family="Helvetica,sans-Serif" font-size="14.00">value = 155.857</text>
</g>
<!-- 1&#45;&gt;3 -->
<g id="edge3" class="edge">
<title>1&#45;&gt;3</title>
<path fill="none" stroke="black" d="M266.35,-88.95C266.44,-80.72 266.53,-71.85 266.62,-63.48"/>
<polygon fill="black" stroke="black" points="270.12,-63.27 266.73,-53.24 263.12,-63.2 270.12,-63.27"/>
</g>
<!-- 5 -->
<g id="node6" class="node">
<title>5</title>
<path fill="#f1bb94" stroke="black" d="M530.5,-53C530.5,-53 381.5,-53 381.5,-53 375.5,-53 369.5,-47 369.5,-41 369.5,-41 369.5,-12 369.5,-12 369.5,-6 375.5,0 381.5,0 381.5,0 530.5,0 530.5,0 536.5,0 542.5,-6 542.5,-12 542.5,-12 542.5,-41 542.5,-41 542.5,-47 536.5,-53 530.5,-53"/>
<text text-anchor="start" x="377.5" y="-37.8" font-family="Helvetica,sans-Serif" font-size="14.00">squared_error = 4095.835</text>
<text text-anchor="start" x="415" y="-22.8" font-family="Helvetica,sans-Serif" font-size="14.00">samples = 99</text>
<text text-anchor="start" x="407.5" y="-7.8" font-family="Helvetica,sans-Serif" font-size="14.00">value = 166.323</text>
</g>
<!-- 4&#45;&gt;5 -->
<g id="edge5" class="edge">
<title>4&#45;&gt;5</title>
<path fill="none" stroke="black" d="M456.65,-88.95C456.56,-80.72 456.47,-71.85 456.38,-63.48"/>
<polygon fill="black" stroke="black" points="459.88,-63.2 456.27,-53.24 452.88,-63.27 459.88,-63.2"/>
</g>
<!-- 6 -->
<g id="node7" class="node">
<title>6</title>
<path fill="#e58139" stroke="black" d="M721.5,-53C721.5,-53 572.5,-53 572.5,-53 566.5,-53 560.5,-47 560.5,-41 560.5,-41 560.5,-12 560.5,-12 560.5,-6 566.5,0 572.5,0 572.5,0 721.5,0 721.5,0 727.5,0 733.5,-6 733.5,-12 733.5,-12 733.5,-41 733.5,-41 733.5,-47 727.5,-53 721.5,-53"/>
<text text-anchor="start" x="568.5" y="-37.8" font-family="Helvetica,sans-Serif" font-size="14.00">squared_error = 4214.477</text>
<text text-anchor="start" x="606" y="-22.8" font-family="Helvetica,sans-Serif" font-size="14.00">samples = 80</text>
<text text-anchor="start" x="598.5" y="-7.8" font-family="Helvetica,sans-Serif" font-size="14.00">value = 228.188</text>
</g>
<!-- 4&#45;&gt;6 -->
<g id="edge6" class="edge">
<title>4&#45;&gt;6</title>
<path fill="none" stroke="black" d="M523.45,-88.95C543.96,-78.75 566.43,-67.57 586.51,-57.59"/>
<polygon fill="black" stroke="black" points="588.16,-60.67 595.56,-53.09 585.04,-54.41 588.16,-60.67"/>
</g>
</g>
</svg>